# xmcd
#
# Track frame offsets:
#	300
#	18542
#	33345
#	51654
#	66723
#	81774
#	95749
#	113147
#	127024
#	143849
#
# Disc length: 2111 seconds
#
# Revision: 15
# Processed by: cddbd v1.5.2PL0 Copyright (c) Steve Scherf et al.
# Submitted via: EasyCDDAExtractor 15.3.0.1
#
DISCID=99083b0a
DTITLE=Julieta Venegas - Si
DYEAR=2003
DGENRE=Latin
TTITLE0=Lento
TTITLE1=Andar Conmigo
TTITLE2=Algo Esta Cambiando
TTITLE3=A Tu Lado
TTITLE4=Lo Que Pidas
TTITLE5=Mala Memoria
TTITLE6=Nada Serio
TTITLE7=Donde Quiero Estar
TTITLE8=Alguien
TTITLE9=Oleada
EXTD=YEAR: 2003
EXTT0=
EXTT1=
EXTT2=
EXTT3=
EXTT4=
EXTT5=
EXTT6=
EXTT7=
EXTT8=
EXTT9=
PLAYORDER=
